/* XPM */
static char *_a95e2c52f344260d84f97aac6d0d3f7KfD3uuoG8f6xuJU6[] = {
/* columns rows colors chars-per-pixel */
"128 128 83 1 ",
"  c #3F3936",
". c #453C35",
"X c #4C3E36",
"o c #433E3B",
"O c #4E3F38",
"+ c #46413E",
"@ c #4C433D",
"# c #54453D",
"$ c #58473E",
"% c #57483F",
"& c #59483F",
"* c #624B3E",
"= c #474340",
"- c #4B4642",
"; c #4E4946",
": c #4F4A48",
"> c #544740",
", c #544A44",
"< c #5C4C43",
"1 c #534D4A",
"2 c #5A4F49",
"3 c #5F5047",
"4 c #56514D",
"5 c #5C524C",
"6 c #575250",
"7 c #5B5552",
"8 c #5E5956",
"9 c #5F5A58",
"0 c #604F45",
"q c #625047",
"w c #6A5346",
"e c #64534A",
"r c #6A564C",
"t c #66584F",
"y c #6D594E",
"u c #715A4F",
"i c #625750",
"p c #645A53",
"a c #6D5B51",
"s c #635D5A",
"d c #6A5F58",
"f c #735D52",
"g c #785F53",
"h c #7B604F",
"j c #66615E",
"k c #6C625C",
"l c #766155",
"z c #796256",
"x c #73635B",
"c c #7C6559",
"v c #7F685B",
"b c #676360",
"n c #6B6563",
"m c #6E6966",
"M c #6F6B68",
"N c #726760",
"B c #726A65",
"V c #7A6C64",
"C c #736D6A",
"Z c #786F69",
"A c #7B7066",
"S c #76716E",
"D c #7B726D",
"F c #777270",
"G c #7C7571",
"H c #7F7874",
"J c #826655",
"K c #866956",
"L c #886A57",
"P c #80675A",
"I c #826A5D",
"U c #896C5A",
"Y c #856E61",
"T c #886F60",
"R c #867063",
"E c #897164",
"W c #81756D",
"Q c #87796E",
"! c #807771",
"~ c #847A74",
"^ c #887D76",
"/ c #8A7F78",
"( c #8D827B",
/* pixels */
"4snnnbbbjjbnnnmbnbs87ss8jbnnnnjndMxMCCCCCMCCSFFSSMMnsMnMMFFCMsi66jCZ!FSSSCZFSSMxs7jMMMnbss99snnnMMCSSCSSSSSFSSMnbsjbnbbnbnmns71:",
"sjBZZDDDWVCZCZDDZndBnknNNWWWZWCWZRM^~^^^^^~^E^(^~FGF!!G!GH~GSMjssnSEEEGG^GG~~GFFCxIGGFWNNCNNNBWW!!~~!!HHH!~~~!!FFWFZSCSZSZCMnss8",
"jptq0qwqrrryeeyyrq0qq<<qerrrwr*yurwuuggggurrrrgggggfguuuyuuxPMbjjxgrwwqq*00rrqqqq><0<0<$<0<<<$ewgrrqrrryrrffyyyrr3qe33qrrprkNbms",
"kwrrrqqwyrreuuuurq0err*qyyyrry<yrrwwrqrrrrrrrrqryuuugguuyuuugMs6suqrwurq00qrqryqr<e<0q<0q0<<0$00qereeryryyyaaaayrryereryuffrrbmn",
"rrqqrtyryryyuyffyr0yurqy<wrurrwwqqwwrrrerrrrrrrurrruergruuuugx86yrqrrrq0000rerrq5e0000qqqew0e<<<0qe0eererrryryyyrqreerytyraaydnn",
"ffttqw0yatffffuffuyygyuqqrqrr*erwuq0qqerrq0urwuugggugruureuugda78rwrww<0qqqqrqqerrreerrree0&0<0eeeeeeereerrrryrrrqeetryrryrrr7sd",
"gyffrfrufggggvgufuyyuurrqueewqyerrq$qqrrrwwrrwrgrgruuergruuuaj76irrww0OO##<0qqreyyayyry<we*$0qeqreerree0eqrrrrrrrererryrerreqe9a",
"fffurrurfgvgfgfgfuyuuuywyrre0ewr0r00qwryrruqw0r0uuugggrrgrrugs78sreq*#$#O<00qqrqrryyayryee<<errrqe0reeerr0<qrrerreeqrrryreeeqt9p",
"trrrrrryuJggfguuuuyruuuwrrurrweeyeyerryr0*wr0qrqrrrrrrrgrygrgs77pqrq<<<e<#00eeerryuufffyrqrqqrye0e0e0reqeq0eqeqrrre0ryrrrrwree;e",
"qrwrwewy0ggggfyywrywuuyy0uuqrqrqeeeyruyyruq00rrerugryyrruuuuuds7pq<0e<2<#<qqrreeeryffffyrr0rrrrrgew<0w0rq00qreqerweJrqrqee0<0575",
"yeewrewrwugggyuyurwyurw0wuqerryyyuuguugrwuqrurrrrrruffyyrguauds7pq<0<<<<000rrrqrrruyfyyuy$0ryrrrree<#<00q0qqqeqqerrgqrqre<e0ee8d",
"uaryurruuyggguyyuruyuqw0ruqw0qygaugggggguuurrurerruruuuurrrrua766000<<0<0qqryrerurrrrrqqr0&0rerrrewq<&<000<03qrqear0<00re0e0ersp",
"yfyrfuuyuywuuuuuguyyuwqruur0rrruggggggguuwu0rrqqrrafafuuuufufsi6e000<<q0e00eyrerrrrr0rewqq0qrrryrew&000qq##<*<q0eyre$00qere0ei9p",
"reeweerwuuuuuufugguyurryur*0ryuugPPggggguwuuyyurruagufrrugffus766e00<0re<<00rrrrfree0qqrqqq0rrrrree0q02qereeewrrrurq000ere0ee58p",
"rrwrruuruuuuuyyuPPPuyrrurwrqrruPPggPgggguwgguuguguggfgyrfgffus67pq<0<0q<<<<0qreeyew00qqqq0qwrrqyree000qqeeeeyyayffyye00erq00q77y",
"reerrurfrwururuufggggurryyuqrurrggPgggguuwggxggxgggggfgyufufr866i<><0e0<e00errrerrq000q0qqeqerruree0<0eq0qerrryffafwreq0egeqer8y",
"eeeurruuw0uuyyyfyggggayyyeyyuyyyuuuggggguwggggPPxPPggffuguguy7:660rqqqq<<<eeeeqerr0<<<000eyeerquweeq<3333qewrtfffffayeqweeqqq57t",
"eewrrfrrw*ruyyuugPgxgfffyuyyuuryuuuuggguuuugxgggggPPgPfggugue6:::0qeqq<eeyeeereqe0<<0<0eeeeyr*qfatwe<<q<3qqeraffffffarqeeqqqe57q",
"<yryrrurqrruurfuuPgggggggPfafuyrrruggPguguggggggggPPPgggxggy6<::::qeiyaairarfyyyerqqqrqyyayyy<uuateeeteeptrugfugffffarrqreee54:4",
":2qtiq22<,>22,>225i7qi61221220:O-<::06e2<<06ei8e78yi866ee776:OO--:<::2::222562211::<:1>125572>65551>-22;,<5ttdkxxxkxafretqt52;--",
"-1777411@.@---o;::::@:----:--:++OO:::::O-:2::62:2::6::-2::::::776::::--::111:::-+-::---:::1:1:::1;;;-;;;;1:8jnmmmmmbmVss98884764",
"jssssMCbjsnsnnbdnnnjbnnbbbbnn9::::8bnnnnnnMCCSSCMMMnnnnMSMMMjjnnnnCCmnmmMMMMMMMdbnbnnnnnnCCCCMnssnmmnnnmnMMSCBkcdddapxp555pjnjs9",
"ne<>0qipiNZBZZCNWWCCCICCMNmCCn9768jnnCVMSSFSSFDDGZFSVCCCGGGFMMnxSCG!FSSSGDGGGGGSFFPMnPCCGFHHGCCFCBBSSDDDDDDVfayaurrwrrqq<<<<kBCB",
"<<,,<#X#O>><#<<0<>>#<&<>&##<qdssssdr0><><<0<0<0<<<<<><><<000<OO<<0ee0er0ewerqq000<>>:00q0qqepPFFCneeq5eqeyytyayyart0eet03<<<<3<<",
"<>>#OOO$OO00><<<<<&#<<&<<O#<<08668e00<<<<0<<<<<<0<0<<0<><<00<O>><0erreeyyyeeeqq<<<<>#<<00qe000bGk<<qeeweyytyyyytyte<qtee<<<<qe3<",
"0><>##>#O#>00$0$&&###<<<<##<<#726e00<<>><>#>####O<0>###<<>>><#O#<eyrprafayr0q<<$<<<0#>0<0q<00qebpqqyrtttytyyyyaytre3qeeee3<<<q<<",
"<<q>###<#O<<e>0<&&##&<&#<#><<<5:16q<<<<<0>>O<###>>><<###><<<OO<<0yrryyuayyyee0$><<##>O0>000<<>espewrarrtatwtayytqq<<<<<<<3<<<<<<",
"eq<>#>><<<>00<$<#>####<<###<<>2667q<<>>>$<<<##<><0<<>><0><<><<<0<eyufyaayeqee0$>2000<#0200<><028pettw00qe<eetyweqq<<<<<<33<53eee",
"e2<<><qqe><$<0<<&>O#O><##<#<<<2666q<<<><<#<0<#<<<<0>0<<>>><<<<000pefaryaeerre2>>000ei000000#<<7spweqeq<q3qqqeeq5q<<<<##<<<qqtttw",
"qq<<q<<<0##0<<>&&>####>###<>>#<667q0<<0<><<$#<<>6e00<<<0<>0<<000rayaerafyrarq0<<20qyq00q<0>><<ejpq<<q5qqqqqqqeqeqq<<><><<<0teewt",
"0<q<<0<<<<#<<<#&&>#OO#<>><<<##14:e<<<>0<0##<<<<<<0eq0q0<0<<<6q00eyyyuufuyyyre02eeeeeeq<>0><-<0iseqq<tq<q333qqqeteq<>><<>><qttetq",
"eeqe<<2<00<<<<<&>>O##<OO<<<<>#26:00<<<<<<><#><<0<0<0q0<0<<<<000eeyyyaaaayyyrryyaareqe20<<<<000is7qq<0<<qqq<<<qrrr3<<<<<<<<qtwreq",
"eqqq0<<<0e<#0<<><#O>>>O>>$<<##26160$<<*<$#<$<><<0<<<<0<<0<<<0<00rraaafaaartrqrartfte3<<q3&qqeetjeq<<<<q<<333qqtyqq<<<<<<&<eqeree",
"eq<q0<0<0q#<0<00<><><>>#>>><<#:116<<><<>>$><$>$0q0<<00<<<<e><<00qrrfaffyraarryraayywqq5eq3e3ee5je5q<<<3<<<q3eewrrq<<<<<5qqeereqe",
"ee<q<0q02<><<000<00><<<><<>$<<2::2<0<0<>$#<0q$>0<0<e0<e0<<00<<<0qraarffrrrrrrraryyrttrqq&eqq<et9i<%q<<<<<<e<reete3<<3qte5eettwee",
"ee,><><,<<<<#000<0qe0<<<<<$<<#1::2<<<<<<#><>><<><<#<q0006<0<<<<0qqraraarartrrrrryyyytyteeq&&33p95%<&%<<><qq&33qeq3<<<3qqeerrtrte",
"e<<<<,<03<<>&00q0<0ee00<<>>$>$:::10<<<<>>#>><><<<<<<0000qqee<<0020qqrraaarrrrrrfytyyyyaare3&33787<&%<<<qpeq&q<333<,<3qqwrqtrttyq",
"e<00000,3<<<<00qq<e0qe00<>>>><>::>><<><<e0<<>0O0<<<<00qq0q0q<<<0<00e0<eqaaatarrtyayyyyyyyt3e3377e<<&><5tere3q5<<3<<33eatrtrrwqqe",
"0<00<<<0qq<<<<0qqqqqqeq0<>><#>::-:>><><#<<<<2q0><00000e6q0e0<<>>>0q<0002qrrfrayfayyyrttryq<q33115<%#<<<qeeq0qq<<3<333q5wqterrere",
"eqieeeteqq3<<q<00qqeqqeeeer<>>-++:>><<00002eeeeq6eeeeeeereq<0>><%<>#<<0qqq0yararyyayyytrlyte14;;11<>5ewtreettpe3qereaatttettarqt",
"211,,1,11,,;,;,,::>>:>1-->::>-+ooo->:O->::-:::<:>:<:>:2<<:<<00>><O>>#<<q0qq0raafyauyyatp7t751@;--;;,,,4,112142@;:45t575555455544",
"1;::1::::;---;;------:----+-+::::::-:--::-:-----::--:::>:::-::>:5i,i27e57ipiaddddddddad5444574644:--::;;;:;;;;;=-,4454664141111,",
"jnmmCMmMMmBmnnnnbbnnnnnbjbbbnjnjbbjnbnnkmmmnnnnnnnMxnMZMCMMn6--:6p76687978nssjmmnnmNmmCFSSDSMMMmnnnnMnnmnknnmmMnnMCMSFGGGFCMmss9",
"CD^!^!~~GDD!DDDBZZZZCZZNMCYZSSSNVCZDDSDZFGGPDZDGZGFZGG!!H^!Sj6:68512,27bCZBj7epadfdkxND^H(~DZSBBCBCCDSDDSSBCSDSGDDDSSD~^!~HGSmSm",
"Nxcffgfffffyrte&000qqqqq<rqq0qrurrrerrrrw000qqq0qqqreyuuugxFmb86i<22q2<<eeeq<qettraaraatyykrtr33<>,<<3<><<%#,<33eq<%<3ttttpkBCSC",
"rgfffgffffauayy*rrqqqrrr0qqerrrrreeerrrwq0e0q0qqqqrweuguuyyuPMns<q0eeeq202<2qqrtrraaarrayyrtree33333<3<<3<33<3333333qqqrwreeqknk",
"rfflflffafuffflwerrrqeeqqeqrrrrrureeq*<0000000<0<<0qqqrrrryyumFd2q0ere<<0q<q2qetrtafartarytrtee33q3q<3<533,<3ee33333<5twteeq5e9r",
"qrflflgufyyuyfltruwqyrrq*eeewruur0q0<<<0q00q<000<<0qqrrqeeyuexMstteqpeq2q2q2q<qqrryrdayrtrtret335<<<3<<e3<3<3erte3333qqttetq3p95",
"qrfgfgfffyuauyuyer0rreeqreqrrruw00<0#00$qq00000q0$r0rrrrrerrugbertqrtreee2qq2qqq3eyayyytteyeetqe32<<33333333erttte33<3<ere333t85",
"rrrflfafyyyggguye00wwqweqqqwrwg000000$00q00000<<0q$00qqrqrruuxiirrrttreeeqq2q22q3eeyteete3q3teee333333&3&3333trree3<<,5eeee33597",
"tqwrfffyfffyfyyeq00wqq0ewq00e0qq000ue00eq0q0qq0<<<<<0rrrqreuudssrrtryeeeqe2eqqqee3eq33e33%&3e33q3333333&&%&3&eeqee3<<<3eee333t77",
"twtyrrffyfyuyyreqq0qqq<eqqq0e00q0*00000erq00q<0$0$<00rrreeerrybyrtyttaeeqqeqerrt3e33333e3%#%3<3333t3&#%%&#353*ee<eq,<<<3ee333475",
"errqrrffuufyweeqee0w0qrrqq0reqe0q000000qqq000<<00>$$0rqreerurysstrrfareqqqt0eqqeee3332<333#%%3<3333&3%#%3&%23335e33<#<3<33&%#441",
"pyytuwryyyyrrreqew&q*eqreqeqew0<0q*0#00000000000q<0$0rqrrrrrqysetetatrereqq2etpee3qq3%#%33,%%3<,%3<3&##&&%@3&533q<<,,<<3&3&%%477",
"ayyyfffyyuyyrwre00000rrrrrreerw<0qqq000000*00<*0q00r0qrqreeeeisiarayaarte2qqtrqt33&333#%,3##%<<&<33<2%,%&&%&5**33<%#<33<2####4jj",
"yafufyfyyyuywq00<0<qqerwwqrerre00qq00*$000w<<<$<0$<<0rrurrereisyrtrrtrrtrqqqqq00333333#<&%,%,3,33e3333#%3%3&&323e,%>,33<###@#%jj",
"rfryfyfryyfw0uuye000qrrqrwreqq000q000<<00**000$$$$$$0errrrqreijsrtyqtytytr20<<<<333333%<&2&2&33&3e3e333#&&52&&335%%%%&%%%%@#@18i",
"rrryuufuyuarerryrre0qrwerqwq00<<0000<<<0000<<0$00#$$#<qrrqrrygbirtyqrreyaqq<<%<<33333*3%&%333&33ekee332<3&&35323&%%%%%i%%###@%75",
"qyyuazfffrrr0errye0eqreewreere<<0000<0<<<0<0q0<<q00<0eaarrrrussytytyyeeeteq<%<#%333332&&22&&3233eree33335&3&&&3&&%1%%%#%%1##%%4i",
"wyrfffffffareerrwrqeeerryreryr00<*0q0<<<##$<><0r0e00eryyurrugssstryrtyteqqq>@@##&333<<2&&&2&335etteet33&%5&53233&5&%1%&&%%##%%4t",
"wqffyfyfufyrreeweq0qrerrreweee00r<0>0<><*#e<0eeqreeeeyuuyrryfs765yrrtree333##@##&33&&&2333323eerettrte33&&5*&&5&5&3%%5%%&%%%%115",
"<<tfyfaffrayrrqerererrryyyiryy0000qeqreq0q06<00eruyyryuuuurre76675eerrtq335%%,&335t5t5tettt3er5ttereeate5i35i5ittitip8ii%51144:4",
",@55555r2222,,:>,>>:,<2452:<<:#oOO---->->O-OO-::<:0<::067<626:62:55555414<;@++@+@42111;2444555454554444411:;%%111:%1%@.+%+:%:;%;",
"11111,11111:-=-o--+=---::----:oo oooooo+ooooooo+--:-:-::::::67ss884414411;;+..++@;;;;1;;,1144441444;,11;::@=;+@:;;;@:@+ +=;@4776",
"mCMmSMSMCCCMnbbbbxbdnnmMCNnnns1+++6sssdjsssssssjjnnknnBBMMMMnMMSCMSSSSSmBmnnj9jjbCMMmmmbCSCSSSbsjmBBMmMCBMnnjmjMnnnnmjnjnjjmBjjM",
"^^^^^^^E!^~~GZSPDZGZGD!~~GGHGCs6468snnmBmNnknmNVBBmmBDDDDDGDGDBSHHGGQDGSGSACMmkkBCDDDDAAH!H~~GFFSDWH(HHHA!HADDAHHD!DDAAH~DAW((~(",
"PPPPgPPggPPggurrryyruggguuufPIks87822#O#>OO<>><O<%%<33eeqeteeeylayyreerqe3&&3%&&&tr3iretyaafNQDDAAAvvcczfffatftaalfarraafaacYvlv",
"PPPPgPPPgPggguuwuuuuuuuuguyffkk8650<$<<$<>><<0<#<><<qqeq3eeeeeryyeerrreqqeq3*3te*rrraaaafaaaafBbbAczvvvYvczfflfhxhxhafxhffzvYYvU",
"PPPPggPggPggguu0ruuuuuuuuuuugud66800<####O<<<O##%%<<eqqq*qeererreyrereeeqe3e3qeeeaaaalluafaaulxspxccczvYvvxxhuffzlzlflxfazzcvYYK",
"PPPPPgPgPgPggrurwruuyuuguyuugre6150e<,$#><<<#>OO%#%&eq3q3eeeeeryyyyeereytee&3eq3waaallaualfaaakj9xvccvvvvvzhazxxhlzxlfhxllzzcKYI",
"PPPPPggPPPPggguryyuuuuuguuuuyr54150000<O0OO<<OO>##$<rqee&3eerelyahyeeeryrr*qqqwe3fuaaaaafa*afukj8xvvvYTvvUvhcfxhlfzachxhzlzzhIII",
"PPPPPgPPPggguuguyuguuuuryyyuyyi:;1<<q000<<0OOOO#%%#&eqqe&&wqeeyyaaterrrrryqeq33q3yluayararryaaNb9NvvvUEYvUAxcvhffalhhxccvzzzlvvK",
"EPPPPgPggggguuuuggggayrrruyuyyi6:2#<0000<<##O>O>%@O#0w0<*33eerlyffytrryyyyyyretqrwtrrtruhererfkjskvcYYYUvvcczzfflafllzvvvzczhvvK",
"EPPPPggPguugguggggguaequryuuuui:12<<00<<0#O#><<>%#X<00q03q<<eyyayutwrrrryyyyytqe3rwtrryraeerrrkjsNUhvvvvzcczcxhafffflzzczvzvlcIv",
"PPggPgguuuuPPugugggyuuruyyyuuye6140<<q000>##O#<<%##&0qeq&33eeeyytwwterrryyyyteeeryrrrrtyyrtyerj8jxvczflhhxchaafxxlallllllzhzuzcK",
"Pggguuruuuggggggggffgquuyuyuur5:1600<<<#0<,<0<0<%#>00<0<&qeeryyyytrrrtrtyyyyrlllaraayrwry*rryed9skzlflfxxfhxhfchxhzflzllaaaluyzz",
"gggguuruuuugggggPfggguyuuyuuuy61:2<&<<&$#<e0<<0<<O%<0<0$e3yeyyyyyywrerrrrtyytyyyuraaaywtetryyrd98jffffxhfhzhxzcczzlflzllylhlyluu",
"fffuuurruugggggfffgryyuyyuyuuye4:1&<q0<<$<<<<<<<$%>2<<q0eytryyyyytytrrrrrlyrruyyarufaateeertyrp98pfzffhhfxcvvzYvcvzlllxlalzyyruu",
"yugyuuuurugPfuuggygfuugyuuuuyr61:1<<0<0<<<<000<<<<<qqqtrtyyyyyyyyrwarrtyyyyrruyyarauuufre3*ayykjjkczfffzfcvAYvvvccchlllcczlluuur",
"uyguuuuuuuuuuufgfffgfygguguguyi::2&<&00<0<00$<<><<q<<qqylyyyyyyyyaaqereyyyyyyrryuauaaaa*35*rtakbkNvclchccvvvccvcxzzxzxzczczrzuzu",
"fyauuggufuuuyuuufyguuufgfgyggyi412<<0<0000e0&<$#%&&&eeeyhhayayyyyaywqraalyyyyrrrrlayyaaq*5*5yakjjVYIzzzcvvvvccchzcxzccczhcclhxlf",
"ggfggugfuyuuuguggxPfgPfgfuyyuur::1<<w<0<00q<<##O@%333qwaaaaaaaaafyytawyaylyyyyttrylyrlye2*2*takjjkvIvvcvvvvvKzcchzhhzcczcczzcczz",
"gggggrgguuyugggggggggPPPggguPei::200<<0<0000<#O#%#3t33talaahahayfffuyrafaalyyyylyaaayaye5i&33dp86jlxvvvvvvvvUzzchhxfccvcxccccczz",
"fPNgguggyyuuugyggggPxPgPPPfeiii:4120<#<<<0<<<#>>%@@;#%147ttaaallffafaeiee7777t7tpt7t5543%:%14i16547jtklkvvvvvzzlzclxccccccUcccxh",
"6126e7asair77iaxdadfdaaas82::72664522222225502;;++++--:1148jkkktpdddkp74445746548665111;@@;;48sjjj774547jlkxlkckkfakxxNxVxxxlajt",
":--::7888878sssssj888887ssnmbmmnj9876667279764128jjsmmMCMMMmMk911pjBCBSSFSFGGFGSGGGFSMMkmmmMCSHHSSSSFCBMjjjjjjjjsjssskjjjjkjjs86",
"7ssjb8707<q78ea8ee5q52<15dNCnNCmnj22<<22<2320>#1pkBBCZGZDDAcBmkjsjVVIVW((((((((((((((((GG~G((((((((((((QAkzakykkakpaxxNxxakapkjj",
"nbsbe<<0><<<<0eeq<<#<<<&><00<<<<>>0#>><<<<<0<<#####%><<<3eetyxkjjkVclffgvvYvIYIIAYvvcvzlflhzvAERAvvvcccvczzfllccvzzlccczzlflzfla",
"bj6<<><>><<$$><<<0>#>$<<<<00<<<$<>><<<0><0e<00,><#><<<0000eryakssxcclllzzvIIYIIYUIIvAIczzllzzzvzhcccczvczzlyllzcczzzcvvzzlflflfk",
"s2><<<><<>>0<<$#<$#<><#<>00<<<&##><<<00><0ryqq0#>#O><<0<0eerrebsskvlllulzIYIIIIIYYIIzzzzzlzczlzzzlhczzclzlllllzcvKAYIvvclllfffhp",
"8<:<0q<<<><><<$<$<<><0<<<0q00<$$<<<<<<<<>0erryq<<##<#<000ereeed98kxczxzzcIYIIYIIIIYvvzzzzzzclflayllczlzalllylzzcYYYYYYTIzllfralt",
"82qqeqq0<<0<>$<><<><0<<<<eqq<0<<<<q<0<0<00erqqriq0,O&<000ereeep78kllxzccIIYYIIIIcvvvzzcvvzzxzflyryyayyhalurlyccvvYvYUYYIvvfaarhj",
"8q<<0e0<<<00<><>>$#00000<qqqq00e0<0<<<<00qrrrrirrq00><<<0qreer888kclllzvIIIIIIvcvcczzzvvvzzllllyealalczlffllhIYIYIIIYYYYvIlhruyy",
"72<02qq0<<00q0$<<<0050<qe000000q<<&<<00<0qq<rqretre20<<<<5qq00p88klzlvzIIIIvIIczcvzzlzcczlzlaarreyhlzcvzllllccPcvvvYIYYIvvaayrrt",
"82<2qq000<00qq0><<<<<00<000<0000<<><<0qqqqqqqeeryreq500000qerrds9jlzzIvIIvIIIvczzhlzllzzcllllaawyahzcczlzlulvccIvvcIIYvvchhtywrt",
"82<0yuee0<<0eq>$<$<<<0<<<<&>#<<<<##<<<<0qq0rq00qqqqq000005erpakssxcvvvIIIIIvvzzllaallllllzfalfarryaalzzllfflczccvvvYYUvcczluraat",
"82><0ereq0>$<00<<<<<<0<<<$>>$<><<#<##<#<0<00qqq000q<qq0q3eeytyxsjkcvIYTIvvczzlzhuyyyffllllzuxlafhyaahllaalyyzczvvvvIYYvcchheayyt",
"6q0<00e000<<00<0<<0><<<$$#0<OO$><<##><0&<<qqei0<eq<<qe0<qerrrynsjkccIYYYvvzllllylfffggzgllzluzyylfyyyzahzyhylzccvIvIYvvvzhlrrhat",
"80000<00<<<$000<<<<$<<<>$>$>OO##&#&><<<<<0qeere0ee<qqq00qrrrerss8xccIIYIvvllllaarylffgllllzllfffaalaalzllyyyylyhllzzzzzhlharyyla",
"8620000<0<<<<<<<<0>#<0<>O<OO<OOOO#>O#<<#<00qqqeeeq<q200qqqeeeedssxczccYYIIzalllyylflfllulglllllylllllllhlllllhzllzzzhllaaryhhhlt",
"8<000000<<$<<<<<$#$><<<OO>>O><OOO<,<<<<>>0q0q0rereq0qqeq3eirrqdsskvzlzcUTIczzllalyzllllllzllglfflzlllhllalaallzzzlalllhyhwyuylat",
"8<0000q00<<>$>$>><>#<$<O>>O>O##>>O#00&<<<<<0<qyeyeeaeeeqqqrrrrdsskccczlIYcczzyyyllzcllglczlgflfllzlhlaallhhllzcczllullayyywyahha",
"72qeqqqq0<<<><<<<<$00<>##O<>>>OOO,<00<<&#<0<0rrreqeerapeyreeqyds9kccvczcccczllyfxlzzlclcIzllglftzzlayhallaaylzzzxlllryywyyyhhaat",
"6:<q0<<:>$>$<<00e<<>0<<>O<>>>##>##<<<<<<00<00rqeeeeerarrererrtp9jkvAvczzcczzlyaflcczccccvPlllzlflzllayreyylllallllalylywwuuyylh7",
"::><<00<<<<<0<ee<<>0ereer00e0:023e3rq5eeqetryrrreeirrrerreiei7i76jkcvvczlvIlxffuazvzzcvcvccllcgzzczczxlallzlczzchxfxcxfahyfrft54",
":--<<::----:>:::-Oo-:::>>:-::OOo+--::>,1111241212-;2554212221214517pktptpsp5tdddppppklxxxxdadps58575541,1455578575i644%4,<245&%@",
"76:::---oooo-o--oooo---::--oooooo+=------::1;:11::-:1::41141179jj974664446144s9j4,:48jjkmnjjs8441;;;--;+;+111;41111;%+++++@;1167",
"MMbMMnjjbsssssj8:-o:6jmnbbjbbss89sbnmmMmnBMmMCMn7447bnMMMMSSSMSSDSSSGGFFGFFZCBmkj989kkkxxDBCG~GSMMmmmnnnnmMmmMmMj99snnjssjbMMnnM",
"FGSFSSCxmbxMMMmj66:6sbmxmxmmMMmxNBZZSW!!!!!W!!GCnjsbCZ!~H^/~H~H~H(~(((HQ^^^!AzlBkj9jkyllxulcA~(~~GZDDDSSSDQDG~QSSCbbBBABNmmGFDDS",
"rq00qq$$>OO#<$0s8867iq<#O$0<:<><<00qeeyyyuyrrrxCmmnMZPxlffflfaaflczhayyyyfxgllxckjskafylllllzllly33qe3*&33eteekxCMmkt32&##%&t3tr",
"0000rq0<<>>>$>$<7<660>O0<<0qq0q00qryyyyryyyyyrydNbjnxfffaffflaffyluyrytyfaaflfulBjjkzuyyllxcczzlyeete3&3eereteeedbpt*233*5&**e*t",
"e00e0q0<0><>><$<6:::<O#>0<qqe0<00qqeryyyayyyyfffxjsxffxffffxlfaayryrryrtuyyfyaurjs9kyyrlfyfzczzyyeee3eee3eyyytratjie35*5*3t33re3",
"000r0q0><$<$><$$<:::#<#<<<0<000000errryryyyryyufks8kxflfffllllayyrrywyrtrryayyyyj88kyaayayahzclyaetwreteeertrryyajieewee33*e&&e3",
"0000000<<<<<$>><:::<<>0<0<$<<00000qrrryyyyrryyuakssdfllfaalllxztterwryeweeyryyytp98tqwerawyalzlkytrtewtyerylpryytjir3qee3&33333t",
"0<0<<<<0eq0$$>><<::7<<<<<<<<<<00000wrryyruyyryrydssdfllglfflllclyyruyuetrrhryyrejjjaey&eaayallllyytwrtryerrplayrpjp*5qeere33&33q",
"0000<00e00<<$<<#6:6i0<<<><<<$$<00qqqeyrryyrryyyaksssflxlxflllllzlrlhuueyrrayyuyrkSkje&rrryaallllfttwytrttryzxzlldjpt*3eqe&qeq3qe",
"00qq000q<$<$<>><6:6ee00e<0<<<<0000qeryyryyuweuffkssdllclffllzllllyhlluyryyfulpyrpBk335t*qralallhfrwteytyryllllxlxbaree&eq3q3&<3e",
"000<0000<$><><<<7267000<00<$$<<q2qwqqeurryyrryyuksskllllfffflyylllzchhutaaluzluytjj*e*33wqqryyyafayrrruyyyflllllxNkaet3eyee3*3ee",
"q0e00<000><$<<2<i76ie0<000<<<#000qqrrryuryryyyufksskxgllfffxlllzccccUJczczzxllayestttqteeetewqeeyayytryyyaallllzNBNxrrw3eete3eee",
"0000<$<<0<<00<<eis7i0<00<0q<#$<<0qreeryuuyuyuyruksskfllflafuyllllzzcUKzzlxllllyytstwtr*rerrya3ryrrafyyyallaflzalxmxffteteeqee&ee",
"000e:<00eeeqree0e866<0<<$$<$>$<<0eewruyuyffrfyraks8jgfffalllalylhlzcLLzhlzflgyytisirerettrteqryrrraaytffylaahllyxmxyyyrytqe33q3q",
"0qq<<<00eyydyrees66e00$$$<$##<<000eeyryyrrryrrfrdsskflffylyalylylzzJLLhcllxllaawt8ierereqrqeqqetaxffcxffllllllalxmyryeeeeeee3%3q",
"qeq0<<0eyfyyyrar66:6<<<>#$#O#<<000equyyuurruyarfds8kffffaaalyylllzzLKUzcglllgfayijt*ayye*3&*qrayyufgffffallyllyykjkryeeeee3**q3q",
"qqee00rqyuayryyy706<<$<>O#><0<0q000eruuyfyarruaad87dlgdfyhaallllzzcLLLzzfffffayft9dtrtrr33&&qyyaycaflyfxllalllltkjtreeeeyyq&3eqq",
"qe<000errryrrrye6::<<<>OO<<<00rrrq0ryyuyrryyfyuas88pdffdaalalzvzzxcLKKhzffflatfr59ittrt***&%*3tatluxfgffaalallaat8teeeeerte&3eeq",
"eq0eeeeerrrrer<21:::-><y<>0qeyeertwryyyfryyyrari5117eayfalhaaaallcPUKhhzffllfaae6675erti53333ee*qflaxfxaazllllye745133terrette*3",
":::<>>:::<:<62<:-:ooo-::O-::::>:,2>227i55525575611;-11>557755731jtyllkppp5p5p754%4::5541%@@@+,,,357ti7pe57ej58411;;;11,1,,11,1@@",
"-:--::::-::::::::7::--oooo-O--:O:1-11,1111111576ps8511;;1551451,;1433t544444414444664%1;+=oo+--;:1454444444644444611;;---;;;;;;-"
};
